<?xml version="1.0" encoding="UTF-8"?>
<svg version="1.1" xmlns="http://www.w3.org/2000/svg" width="1024" height="1024">
<path d="M0 0 C337.92 0 675.84 0 1024 0 C1024 337.92 1024 675.84 1024 1024 C686.08 1024 348.16 1024 0 1024 C0 686.08 0 348.16 0 0 Z " fill="#FEFEFE" transform="translate(0,0)"/>
<path d="M0 0 C3.3630352 0.27943444 6.7271478 0.51839378 10.09375 0.75048828 C19.76494378 1.45444188 29.06614188 2.28505522 38.34375 5.27783203 C37.46983413 11.75380302 34.98332711 16.87890104 32.15625 22.71533203 C31.62451172 23.81554687 31.09277344 24.91576172 30.54492188 26.04931641 C19.35474756 48.75458299 4.96006345 69.430468 -10.65625 89.27783203 C-11.0982373 89.84066895 -11.54022461 90.40350586 -11.99560547 90.98339844 C-13.84620069 93.33983616 -15.69710847 95.69600134 -17.55322266 98.0480957 C-19.77616927 100.86802429 -21.98412602 103.69679381 -24.15234375 106.55908203 C-29.88999739 114.13136389 -35.93153423 121.37160586 -42.15820312 128.54589844 C-44.5720325 131.33659361 -46.95992526 134.148999 -49.34375 136.96533203 C-49.79943359 137.50287109 -50.25511719 138.04041016 -50.72460938 138.59423828 C-53.56205034 141.95167203 -56.33788109 145.35282229 -59.09375 148.77783203 C-63.87254573 154.64697688 -69.0003399 160.15734811 -74.16845703 165.68115234 C-76.45388621 168.13384464 -78.7098289 170.61323876 -80.96875 173.09033203 C-109.59206382 204.3456747 -109.59206382 204.3456747 -121.55859375 214.45751953 C-123.80345295 216.4055724 -125.96346013 218.43434484 -128.1262207 220.47265625 C-134.74454604 226.69167563 -141.65937916 232.34452776 -148.85595703 237.87597656 C-151.30526129 239.78320535 -153.70696155 241.74648729 -156.11303711 243.70776367 C-169.57799273 254.64660079 -183.76527905 264.25088302 -198.67871094 273.09960938 C-200.39090691 274.11973997 -202.09114917 275.15988352 -203.7890625 276.20361328 C-211.23508935 280.71478554 -219.0138183 284.37202943 -226.8984375 288.03564453 C-230.38275699 289.66073668 -233.80662501 291.36848686 -237.21435547 293.1472168 C-256.10543607 302.95321577 -276.38261407 310.41519988 -296.42553711 317.4831543 C-301.97742523 319.46098026 -307.4736635 321.58572417 -312.96875 323.71533203 C-321.20832849 326.88366879 -329.41139417 329.97154535 -337.890625 332.43798828 C-341.17310132 333.43478547 -344.40984927 334.54422072 -347.65625 335.65283203 C-354.50767135 337.96538074 -361.41911734 339.95350596 -368.3984375 341.84033203 C-372.24963569 342.88240344 -376.08308066 343.97628482 -379.9140625 345.09033203 C-409.25434031 353.53915801 -439.06958044 359.44099642 -469.27783203 363.78076172 C-471.42223345 364.09626983 -473.56431672 364.42832746 -475.70263672 364.78271484 C-495.9319122 368.12559207 -516.08874798 368.64806273 -536.54537582 368.59568787 C-538.74441449 368.59026879 -540.94344244 368.5878863 -543.14248657 368.58581543 C-575.63717849 368.53812462 -608.01699109 367.47925283 -639.65625 359.27783203 C-639.65625 358.61783203 -639.65625 357.95783203 -639.65625 357.27783203 C-633.40888179 356.62126025 -627.16135311 355.96624182 -620.91366577 355.31271362 C-618.70044381 355.08113167 -616.48724798 354.84929981 -614.27407837 354.61721802 C-602.3762417 353.37041032 -590.47872119 352.14684902 -578.56542969 351.05712891 C-544.40814056 347.92014355 -510.0269145 342.28723402 -476.65625 334.27783203 C-475.59776855 334.02904297 -474.53928711 333.78025391 -473.44873047 333.52392578 C-439.13539807 325.33972897 -406.36841084 312.21356088 -373.81877136 298.80581665 C-338.52838861 284.28380557 -302.72923419 271.41935323 -265.07958984 264.72119141 C-260.92756772 263.96156294 -256.79277401 263.11702731 -252.65625 262.27783203 C-258.60083115 261.53884145 -264.3844954 261.12918026 -270.37109375 261.14501953 C-271.17651611 261.14360962 -271.98193848 261.14219971 -272.81176758 261.14074707 C-275.40580772 261.13862898 -277.99972242 261.14487241 -280.59375 261.15283203 C-281.47942657 261.15438293 -282.36510315 261.15593384 -283.27761841 261.15753174 C-294.38678811 261.18035837 -305.49033274 261.27157757 -316.59375 261.65283203 C-317.60236084 261.6836084 -318.61097168 261.71438477 -319.65014648 261.74609375 C-324.62370631 261.95174322 -329.15817394 262.53894686 -333.98046875 263.73754883 C-337.50584943 264.4493798 -341.0554199 264.78082226 -344.62890625 265.14892578 C-353.66100049 266.12560503 -362.30018378 268.1083676 -371.09375 270.34033203 C-372.69623641 270.73971462 -374.29885985 271.1385477 -375.90161133 271.53686523 C-380.82450645 272.76568433 -385.74077532 274.0197134 -390.65625 275.27783203 C-391.44169189 275.47799927 -392.22713379 275.6781665 -393.03637695 275.88439941 C-397.59551056 277.04637791 -402.15173679 278.2188356 -406.70413208 279.4069519 C-408.09605575 279.77020485 -409.48835131 280.13203677 -410.881073 280.49221802 C-418.49842015 282.4691275 -425.9756962 284.67736109 -433.421875 287.22705078 C-442.89877468 290.46242577 -452.50920877 292.97281372 -462.21875 295.40283203 C-463.87189166 295.82282729 -465.52488683 296.24339956 -467.17773438 296.66455078 C-471.99900139 297.88908525 -476.82649597 299.08727755 -481.65625 300.27783203 C-482.38822601 300.45986176 -483.12020203 300.64189148 -483.87435913 300.82943726 C-494.62828145 303.49386911 -505.4037258 305.59835169 -516.34375 307.34033203 C-517.13828583 307.4682312 -517.93282166 307.59613037 -518.75143433 307.72790527 C-533.55460197 310.09735487 -548.37194333 311.92024007 -563.32263184 313.08972168 C-565.02816337 313.22720267 -566.73309274 313.37221232 -568.43762207 313.52160645 C-588.10658151 315.23842239 -607.62957637 315.6032893 -627.35697556 315.53557968 C-629.82149091 315.52770343 -632.28599397 315.52320723 -634.7505188 315.5194397 C-662.75561147 315.46974249 -690.69201379 314.86235227 -718.65625 313.27783203 C-720.63020558 313.16954614 -722.60416395 313.06131107 -724.578125 312.953125 C-783.92681875 309.64603457 -783.92681875 309.64603457 -793.65625 304.27783203 C-792.76470215 304.18808105 -791.8731543 304.09833008 -790.95458984 304.00585938 C-767.71948912 301.63179322 -744.67206517 298.56752074 -721.65075684 294.61907959 C-719.86324457 294.3132475 -718.07474841 294.01317913 -716.28613281 293.71386719 C-677.3885931 287.0915262 -638.60630483 275.11235 -601.71875 261.27783203 C-600.8473941 260.95201141 -599.97603821 260.6261908 -599.07827759 260.29049683 C-586.00088942 255.39423345 -573.04203302 250.27144353 -560.20141602 244.78369141 C-559.10756592 244.31898438 -558.01371582 243.85427734 -556.88671875 243.37548828 C-555.94207764 242.9682251 -554.99743652 242.56096191 -554.02416992 242.14135742 C-551.65625 241.27783203 -551.65625 241.27783203 -548.65625 241.27783203 C-548.65625 240.61783203 -548.65625 239.95783203 -548.65625 239.27783203 C-550.34814453 239.73609375 -550.34814453 239.73609375 -552.07421875 240.20361328 C-556.67827122 241.35085588 -561.26124427 241.92384601 -565.96875 242.46533203 C-577.58164243 243.89247272 -589.11254771 245.75617321 -600.65625 247.65283203 C-601.58908813 247.805737 -602.52192627 247.95864197 -603.48303223 248.11618042 C-612.10677727 249.53031914 -620.72872342 250.95505196 -629.34822083 252.39485168 C-642.19367828 254.53739311 -655.03345443 256.56320359 -667.96875 258.09033203 C-669.52541382 258.27644043 -669.52541382 258.27644043 -671.11352539 258.46630859 C-677.32076514 259.15855443 -683.41204574 259.42456268 -689.65625 259.27783203 C-689.65625 258.61783203 -689.65625 257.95783203 -689.65625 257.27783203 C-688.57988281 256.90271484 -687.50351562 256.52759766 -686.39453125 256.14111328 C-684.91909863 255.6246779 -683.44385183 255.1077115 -681.96875 254.59033203 C-681.19144531 254.31777588 -680.41414062 254.04521973 -679.61328125 253.7644043 C-675.08944792 252.16794872 -670.61267914 250.49337365 -666.15625 248.71533203 C-657.25037339 245.24824325 -648.03668057 242.79538937 -638.84765625 240.20361328 C-627.99145694 237.10362059 -617.29695452 233.54381698 -606.6027832 229.93139648 C-600.74449791 227.9568018 -594.8839326 226.02099089 -588.96875 224.22314453 C-582.89100709 222.37357813 -576.89614848 220.33013292 -570.90625 218.21533203 C-568.97415616 217.53638339 -567.04186705 216.85799016 -565.109375 216.18017578 C-564.27567383 215.88618896 -563.44197266 215.59220215 -562.58300781 215.28930664 C-560.18663242 214.46112986 -557.7856457 213.65393482 -555.37915039 212.85595703 C-550.78094523 211.32742476 -546.20728296 209.73449191 -541.63671875 208.12548828 C-539.891665 207.51316554 -538.14654503 206.9010315 -536.40136719 206.2890625 C-535.49495483 205.97112732 -534.58854248 205.65319214 -533.65466309 205.32562256 C-514.98820856 198.78259534 -496.27453325 192.40106006 -477.48982239 186.20597839 C-474.24763757 185.13670035 -471.0074538 184.06207984 -467.77148438 182.97412109 C-459.76842365 180.28456112 -451.73659704 177.72509527 -443.65625 175.27783203 C-442.38056032 174.88569704 -441.10501322 174.49309794 -439.82958984 174.10009766 C-417.21502458 167.15181617 -394.41029879 161.04202562 -371.46243668 155.30751038 C-369.36816647 154.78393623 -367.27431386 154.25871783 -365.18051147 153.73327637 C-351.16269098 150.22038823 -337.14750119 146.83407543 -322.95092773 144.11474609 C-316.54215274 142.88523892 -310.19910441 141.38133163 -303.84375 139.90283203 C-289.31391998 136.56175178 -274.71796816 133.67780448 -260.06640625 130.92578125 C-257.06093133 130.3547238 -254.06100327 129.76313398 -251.0625 129.15673828 C-230.09290947 124.94721453 -208.38709135 121.13873469 -186.94921875 121.10986328 C-186.06196609 121.10653488 -185.17471344 121.10320648 -184.26057434 121.09977722 C-182.39759839 121.09475319 -180.53461358 121.09236748 -178.67163086 121.0925293 C-175.86101061 121.09034544 -173.05078537 121.0721481 -170.24023438 121.05322266 C-161.34463991 121.02637271 -152.81409149 121.2026244 -144.0480957 122.84692383 C-141.56923039 123.36648345 -141.56923039 123.36648345 -138.65625 123.27783203 C-159.29075332 108.45155928 -179.88148985 109.04658324 -204.34375 109.02783203 C-205.49465118 109.02616028 -206.64555237 109.02448853 -207.83132935 109.02276611 C-226.12036648 109.02117895 -244.08785065 109.84965066 -262.25488281 111.90625 C-265.38432984 112.24812614 -268.51048734 112.53182713 -271.6484375 112.78173828 C-281.03142806 113.53432619 -290.13724441 114.80052899 -299.36254883 116.67822266 C-306.59434203 118.1359279 -313.85073221 119.19895232 -321.15625 120.21533203 C-330.29206642 121.50537442 -339.22285036 123.12429438 -348.15625 125.43969727 C-353.76361344 126.88750991 -359.39488843 128.00791304 -365.09092712 129.05371094 C-388.03687306 133.28323856 -410.87326493 138.23420773 -433.34375 144.52783203 C-434.06776001 144.72998322 -434.79177002 144.9321344 -435.53771973 145.14041138 C-442.94907622 147.22205634 -450.28823637 149.45191189 -457.578125 151.92626953 C-463.08551807 153.78967592 -468.55450403 155.36034013 -474.21875 156.65283203 C-482.40870543 158.61190434 -490.38719248 161.01707721 -498.39086914 163.62768555 C-504.44455463 165.59583454 -510.52103976 167.39539068 -516.65625 169.09033203 C-527.37106468 172.07534947 -537.88769361 175.62907895 -548.42434692 179.17935181 C-555.3167264 181.50148205 -562.22188481 183.77181479 -569.15625 185.96533203 C-570.02983154 186.2416748 -570.90341309 186.51801758 -571.8034668 186.80273438 C-573.54130219 187.35138805 -575.27933772 187.89940819 -577.01757812 188.44677734 C-581.64899065 189.90544946 -586.27801333 191.37161791 -590.90625 192.84033203 C-591.82180664 193.13045166 -592.73736328 193.42057129 -593.68066406 193.71948242 C-599.44429123 195.55275366 -605.17918683 197.45885795 -610.90625 199.40283203 C-617.58398883 201.66410833 -624.3107672 203.61588605 -631.1159668 205.45410156 C-637.1351048 207.09347365 -643.00751226 209.02516971 -648.9140625 211.03564453 C-654.9568189 213.04148643 -661.06871232 214.79659505 -667.18505859 216.5625 C-670.90353085 217.63888053 -674.61801681 218.72881435 -678.33300781 219.81713867 C-681.44070926 220.72540318 -684.5503392 221.62684109 -687.66015625 222.52783203 C-691.30169926 223.58458901 -694.93432887 224.66336127 -698.55859375 225.77783203 C-785.54606487 252.15444768 -785.54606487 252.15444768 -820.65625 243.27783203 C-819.65625 241.27783203 -819.65625 241.27783203 -817.05517578 240.2722168 C-815.9154834 239.92473389 -814.77579102 239.57725098 -813.6015625 239.21923828 C-811.71824219 238.64012695 -811.71824219 238.64012695 -809.796875 238.04931641 C-808.4583435 237.64628784 -807.11980178 237.24329324 -805.78125 236.84033203 C-804.48156596 236.4419112 -803.18208424 236.04282974 -801.8828125 235.64306641 C-796.33904155 233.94557506 -790.79042437 232.29240171 -785.18359375 230.81298828 C-778.05689484 228.89703292 -771.08516512 226.50495467 -764.09375 224.15283203 C-762.54195517 223.63324965 -760.99011451 223.11380414 -759.43823242 222.59448242 C-743.59340298 217.28418702 -727.77745209 211.88811387 -711.95996094 206.49707031 C-700.10383362 202.45791998 -688.23565956 198.4602577 -676.34375 194.52783203 C-665.08768309 190.80476304 -653.89471469 186.92200256 -642.71875 182.96533203 C-625.01690423 176.69921882 -607.21989544 170.73896257 -589.39247131 164.8409729 C-583.51448592 162.89592681 -577.64063446 160.93886159 -571.76953125 158.97314453 C-552.69776607 152.58956451 -533.60841792 146.29230442 -514.3671875 140.43408203 C-511.2196478 139.45337493 -508.08173587 138.44955093 -504.9453125 137.43408203 C-494.78634371 134.14749434 -484.64564371 130.91310008 -474.33325195 128.14135742 C-468.38348348 126.52481401 -462.5223569 124.67375859 -456.65625 122.77783203 C-449.31403347 120.40661774 -441.9585165 118.1943766 -434.51074219 116.1809082 C-429.68989195 114.86856564 -424.9177838 113.44200017 -420.15039062 111.94750977 C-402.48942775 106.43081576 -384.5767225 101.86092671 -366.65625 97.27783203 C-365.59128296 97.00525574 -364.52631592 96.73267944 -363.42907715 96.45184326 C-335.56653335 89.32807509 -307.70080322 82.39874021 -279.54568481 76.52732849 C-272.78703099 75.11112987 -266.06553033 73.54571559 -259.34375 71.96533203 C-251.44873469 70.11712585 -243.56401612 68.41712715 -235.58203125 66.99267578 C-230.06867778 65.98875172 -224.58126194 64.86113186 -219.09423828 63.72265625 C-214.63943942 62.81507754 -210.18416378 62.03670098 -205.6875 61.36474609 C-198.79835514 60.31425725 -191.93693837 59.13204862 -185.07421875 57.92236328 C-182.44856676 57.46323703 -179.82285136 57.0044927 -177.19702148 56.54638672 C-176.18165912 56.36914236 -176.18165912 56.36914236 -175.14578438 56.1883173 C-153.33130671 52.38251126 -131.51691284 48.66170028 -109.59375 45.52783203 C-108.6423111 45.39166473 -107.69087219 45.25549744 -106.71060181 45.11520386 C-101.96288184 44.43750597 -97.21435477 43.76567075 -92.46533203 43.09716797 C-83.16235315 41.78686694 -73.8628204 40.45376791 -64.56692505 39.09411621 C-61.66397612 38.67212591 -58.75971553 38.26033715 -55.85522461 37.84912109 C-40.5859448 35.64200833 -25.46232579 32.6574486 -10.65625 28.27783203 C-14.69963452 25.58224235 -18.16016413 25.57864816 -22.9296875 25.17236328 C-23.89546722 25.08847855 -24.86124695 25.00459381 -25.85629272 24.91816711 C-38.61523168 23.91898065 -51.3967123 23.92521639 -64.18733215 23.95977402 C-66.3147896 23.96542106 -68.44223901 23.96824013 -70.56970215 23.97085571 C-123.74404543 24.06547672 -176.31099455 28.74845913 -228.86425781 36.70458984 C-232.37441462 37.23522648 -235.88607806 37.75420386 -239.3984375 38.27001953 C-275.18048924 43.58342712 -310.73128233 50.2255991 -345.81274414 59.07397461 C-351.01581121 60.38573661 -356.20840653 61.65002977 -361.46875 62.71533203 C-366.24709275 63.7209506 -370.96223997 64.85490522 -375.67578125 66.12939453 C-376.99727211 66.48526469 -378.31880653 66.84097313 -379.64038086 67.1965332 C-380.30746063 67.3764682 -380.97454041 67.5564032 -381.66183472 67.74179077 C-384.80056874 68.58539188 -387.94338548 69.41342885 -391.0859375 70.24267578 C-407.56402526 74.60349723 -423.94995333 79.12945407 -440.20727539 84.26074219 C-444.2589283 85.53792053 -448.31875828 86.78396316 -452.38671875 88.00830078 C-453.39202637 88.3113916 -454.39733398 88.61448242 -455.43310547 88.92675781 C-457.39619953 89.51754903 -459.36002112 90.10593052 -461.32470703 90.69140625 C-467.03744756 92.41293076 -472.64213111 94.32690271 -478.23803711 96.39624023 C-480.97657127 97.39460943 -483.73513658 98.26770736 -486.53125 99.09033203 C-502.52005419 103.94171654 -518.2567484 109.50109272 -533.93173218 115.27636719 C-542.98720804 118.60493441 -552.06419309 121.87501937 -561.13671875 125.15673828 C-563.70770584 126.08701175 -566.27865406 127.01739262 -568.84960938 127.94775391 C-572.85855242 129.39844269 -576.86754701 130.8489886 -580.87670898 132.29907227 C-584.15095169 133.48335599 -587.42502872 134.66809673 -590.6989994 135.85313225 C-592.52888564 136.51533309 -594.35894594 137.17705285 -596.18901062 137.83876038 C-602.02468204 139.95134671 -607.85001736 142.08563967 -613.65625 144.27783203 C-615.25925248 144.86435697 -616.86330952 145.44801366 -618.46875 146.02783203 C-621.92579467 147.27673691 -625.37395251 148.54545599 -628.8125 149.84423828 C-661.90666861 162.29761975 -695.99434701 170.9388936 -730.48046875 178.52783203 C-731.2196907 178.69094879 -731.95891266 178.85406555 -732.72053528 179.02212524 C-739.0907455 180.40975244 -745.00292648 181.40694758 -751.53125 181.34033203 C-752.68367188 181.33130859 -753.83609375 181.32228516 -755.0234375 181.31298828 C-755.89226562 181.30138672 -756.76109375 181.28978516 -757.65625 181.27783203 C-755.58611539 179.20769742 -754.36108623 178.62548508 -751.67700195 177.59228516 C-750.84606018 177.26945557 -750.01511841 176.94662598 -749.15899658 176.61401367 C-748.24672302 176.26588623 -747.33444946 175.91775879 -746.39453125 175.55908203 C-745.43722107 175.18904053 -744.47991089 174.81899902 -743.49359131 174.43774414 C-740.32055597 173.21274969 -737.14465101 171.99537549 -733.96875 170.77783203 C-731.75624805 169.92478568 -729.54392933 169.07126394 -727.33178711 168.21728516 C-716.18473391 163.91844996 -705.02538003 159.65216775 -693.859375 155.40283203 C-663.53528258 143.88937408 -663.53528258 143.88937408 -633.65625 131.27783203 C-632.88974121 130.94203125 -632.12323242 130.60623047 -631.33349609 130.26025391 C-607.27087973 119.67034939 -585.38962818 105.42067774 -564.19628906 89.99926758 C-547.65125351 77.9808063 -530.41183822 67.17438298 -511.93554688 58.36572266 C-510.3477926 57.60789992 -508.7633908 56.84303004 -507.18164062 56.07275391 C-472.39957574 39.1845015 -435.24579583 27.0917101 -397.65625 18.27783203 C-395.75257755 17.82091167 -393.84893158 17.36388095 -391.9453125 16.90673828 C-380.25178908 14.13650016 -368.56045403 11.91799406 -356.65625 10.27783203 C-355.32013672 10.07867187 -355.32013672 10.07867187 -353.95703125 9.87548828 C-332.14609334 7.0967824 -309.41272775 9.65183287 -289.19140625 18.33642578 C-284.73050819 20.15143856 -281.60588902 20.32594461 -276.8359375 19.51220703 C-275.67980957 19.31876709 -274.52368164 19.12532715 -273.33251953 18.92602539 C-272.11935059 18.71212158 -270.90618164 18.49821777 -269.65625 18.27783203 C-268.48562012 18.07359619 -267.31499023 17.86936035 -266.10888672 17.65893555 C-263.5933898 17.2166153 -261.07835886 16.77163946 -258.5637207 16.32446289 C-218.50006472 9.22392929 -178.1840614 3.86998482 -137.65625 0.27783203 C-136.51346588 0.17438477 -136.51346588 0.17438477 -135.34759521 0.06884766 C-90.91290588 -3.91860655 -44.44582107 -3.69756197 0 0 Z " fill="#0F181B" transform="translate(898.65625,327.72216796875)"/>
<path d="M0 0 C1.19882812 0.30035156 2.39765625 0.60070312 3.6328125 0.91015625 C14.10632943 3.94196378 22.78423526 9.89765666 30 18 C25.9199732 19.59792172 22.07238505 18.46003436 17.9375 17.625 C-11.0872996 11.85742253 -39.97693534 15.91630842 -68.6875 21.4375 C-69.82606949 21.6550444 -69.82606949 21.6550444 -70.98764038 21.87698364 C-79.64924253 23.54595026 -88.11586973 25.48980762 -96.57983398 28.00219727 C-102.57219968 29.75041617 -108.63589099 31.22254874 -114.6875 32.75 C-129.24160803 36.45937378 -143.63821778 40.60161256 -158 45 C-159.10359863 45.33580078 -160.20719727 45.67160156 -161.34423828 46.01757812 C-180.86562977 51.96512737 -200.26512026 58.27751064 -219.66365051 64.61152649 C-225.01854674 66.35843154 -230.37801514 68.09039355 -235.7421875 69.80859375 C-252.14384248 75.05455954 -252.14384248 75.05455954 -268.4375 80.625 C-269.60466553 81.03758057 -269.60466553 81.03758057 -270.79541016 81.45849609 C-271.57062012 81.73258301 -272.34583008 82.00666992 -273.14453125 82.2890625 C-309.55097475 95.1472212 -346.90242528 104.66142017 -385 111 C-385.76376953 111.12745605 -386.52753906 111.25491211 -387.31445312 111.38623047 C-400.10592677 113.44178485 -413.07333485 113.61962205 -426 114 C-422.47974869 111.22456481 -418.94414815 109.68150717 -414.75 108.1875 C-413.30463885 107.6589872 -411.8593277 107.13033763 -410.4140625 106.6015625 C-409.67833008 106.33504883 -408.94259766 106.06853516 -408.18457031 105.79394531 C-404.8230631 104.57226209 -401.47368173 103.31883185 -398.125 102.0625 C-397.14092163 101.69439209 -397.14092163 101.69439209 -396.13696289 101.31884766 C-390.3798618 99.15880174 -384.65462215 96.91996583 -378.92895508 94.67822266 C-372.61921816 92.21809399 -366.26795575 89.88106477 -359.90625 87.55932617 C-354.96429202 85.74737685 -350.06416369 83.8556245 -345.1875 81.875 C-339.21934197 79.45285794 -333.21354609 77.26400696 -327.12109375 75.17578125 C-323.95001636 73.98117012 -321.02740807 72.51762555 -318 71 C-315.78172084 70.13810324 -313.55106244 69.3077541 -311.3125 68.5 C-302.42734016 65.24228767 -293.68354601 61.64753237 -284.93286133 58.046875 C-277.32797537 54.92370936 -269.68440741 51.92179426 -262 49 C-256.12777254 46.76102323 -250.25987559 44.51858606 -244.4375 42.15234375 C-233.46813992 37.69933828 -222.42805012 33.60993556 -211.22900391 29.77294922 C-209.22198326 29.07697689 -207.22453747 28.3610151 -205.23046875 27.62890625 C-198.32063875 25.09398576 -191.38400655 22.85489112 -184.2980957 20.87451172 C-180.37004243 19.76153928 -176.55230361 18.48677906 -172.7265625 17.05859375 C-166.91792765 14.91772695 -161.04197695 13.21829064 -155.0625 11.625 C-153.95076416 11.32754883 -152.83902832 11.03009766 -151.69360352 10.72363281 C-138.89309317 7.36114269 -125.97355227 4.60269289 -113 2 C-111.78957031 1.7527417 -111.78957031 1.7527417 -110.5546875 1.50048828 C-105.72106621 0.52387707 -100.87755568 -0.27739916 -96 -1 C-95.1450293 -1.13535156 -94.29005859 -1.27070313 -93.40917969 -1.41015625 C-63.72148291 -5.96959498 -29.2365885 -7.91561353 0 0 Z " fill="#FBFBFB" transform="translate(720,503)"/>
<path d="M0 0 C36.20577144 -1.26432853 68.99405894 9.00446874 101.51074219 24.09863281 C101.51074219 24.75863281 101.51074219 25.41863281 101.51074219 26.09863281 C95.97892579 26.12350781 90.44714257 26.14157516 84.9152832 26.15356445 C83.0366967 26.15856713 81.15811403 26.16537137 79.27954102 26.17407227 C76.56623379 26.18631708 73.85297843 26.19190192 71.13964844 26.19628906 C69.89689903 26.20403099 69.89689903 26.20403099 68.62904358 26.21192932 C63.85336941 26.21238013 59.21326805 25.9200408 54.47322083 25.33790588 C29.72180899 22.32011694 4.08083532 23.37135441 -20.48925781 27.09863281 C-21.49150391 27.24848633 -22.49375 27.39833984 -23.52636719 27.55273438 C-36.46923421 29.5307001 -48.99518444 32.19232431 -61.48925781 36.09863281 C-62.65618164 36.4629541 -63.82310547 36.82727539 -65.02539062 37.20263672 C-79.64758 41.78728712 -94.2491533 46.41811861 -108.48925781 52.09863281 C-109.37645508 52.44861328 -110.26365234 52.79859375 -111.17773438 53.15917969 C-123.95844655 58.20099657 -136.6781616 63.38183072 -149.34667969 68.69921875 C-154.5494853 70.8825065 -159.76414572 73.02738388 -165.00756836 75.11132812 C-167.52458613 76.11268768 -170.03613506 77.12702839 -172.54785156 78.14160156 C-186.36436485 83.67308722 -200.35245218 88.47548575 -214.49267578 93.10693359 C-220.49459471 95.0932294 -226.44362633 97.22631653 -232.39648438 99.35400391 C-236.35929867 100.76401132 -240.3310927 102.14842393 -244.30175781 103.53613281 C-245.13819824 103.82891113 -245.97463867 104.12168945 -246.83642578 104.42333984 C-251.06808746 105.90429958 -255.30103738 107.38142659 -259.53613281 108.85253906 C-261.20811341 109.4342669 -262.87998905 110.01629649 -264.55175781 110.59863281 C-265.36604248 110.88222656 -266.18032715 111.16582031 -267.01928711 111.45800781 C-273.90563175 113.86867157 -280.75009872 116.38761403 -287.57543945 118.96582031 C-293.27543 121.09863281 -293.27543 121.09863281 -295.48925781 121.09863281 C-293.8217114 114.22000384 -287.90569192 110.5934234 -282.21191406 107.07128906 C-278.02604315 104.64481031 -273.76176026 102.36797043 -269.48925781 100.09863281 C-268.62816406 99.6379541 -267.76707031 99.17727539 -266.87988281 98.70263672 C-252.60943522 91.08578532 -238.14944328 83.93205071 -223.48925781 77.09863281 C-222.85286377 76.80170532 -222.21646973 76.50477783 -221.56079102 76.19885254 C-197.11713435 64.79994399 -172.49248658 53.83368973 -147.75671387 43.0848999 C-145.6305156 42.1600752 -143.50543767 41.2327383 -141.38085938 40.30419922 C-121.06152974 31.42731589 -100.59446012 22.94079755 -79.48925781 16.09863281 C-78.58868652 15.80553223 -77.68811523 15.51243164 -76.76025391 15.21044922 C-51.9557888 7.22703739 -26.11939596 1.0349388 0 0 Z " fill="#131D20" transform="translate(527.4892578125,304.9013671875)"/>
<path d="M0 0 C1 3 1 3 -0.30078125 5.8984375 C-0.95747364 7.06521345 -1.62916494 8.22362508 -2.3125 9.375 C-2.67351807 9.9927832 -3.03453613 10.61056641 -3.40649414 11.24707031 C-9.7038026 21.76088406 -17.59114131 31.11488737 -26 40 C-26.71800781 40.75925781 -27.43601562 41.51851562 -28.17578125 42.30078125 C-33.24540467 47.51447922 -38.62170845 52.20411362 -44.33935547 56.69433594 C-45.51660147 57.61993306 -46.68969899 58.55081762 -47.85986328 59.48535156 C-65.33131908 73.41616599 -84.10702783 83.9115879 -104 94 C-105.08958008 94.56231323 -105.08958008 94.56231323 -106.20117188 95.13598633 C-112.51876747 98.36712882 -119.09532095 100.768736 -125.76074219 103.17480469 C-127.95123389 103.98202906 -130.11951477 104.83359926 -132.2890625 105.6953125 C-163.88816858 117.90171365 -201.26940421 123.20635698 -234.9375 123.1875 C-235.94473618 123.18808914 -235.94473618 123.18808914 -236.97232056 123.18869019 C-264.06552683 123.16980934 -264.06552683 123.16980934 -276 120 C-276 119.34 -276 118.68 -276 118 C-262.63735631 114.34358028 -249.25886575 110.77430853 -235.8125 107.4375 C-209.20685655 100.88165016 -209.20685655 100.88165016 -183.06689453 92.71582031 C-179.700854 91.55007134 -176.31876488 90.43314533 -172.9375 89.3125 C-171.81214844 88.93738281 -170.68679688 88.56226563 -169.52734375 88.17578125 C-167.68360813 87.56120271 -165.83962323 86.94733491 -163.99316406 86.34098816 C-158.7166497 84.60094559 -153.49185469 82.75073025 -148.28515625 80.8125 C-147.48005112 80.51356339 -146.67494598 80.21462677 -145.84544373 79.90663147 C-110.8766317 66.96728834 -110.8766317 66.96728834 -77.15722656 51.12353516 C-74.64414803 49.81466379 -72.1153659 48.53869897 -69.5859375 47.26171875 C-52.87965822 38.76811387 -36.91577511 29.38779237 -22 18 C-20.92205565 17.18986374 -19.84392007 16.37998189 -18.765625 15.5703125 C-12.25784438 10.65311417 -5.99155438 5.54257485 0 0 Z " fill="#131D20" transform="translate(820,568)"/>
<path d="M0 0 C4.02792823 0.00010331 8.0556868 -0.0137669 12.0835743 -0.03077221 C15.21480109 -0.04186483 18.34598564 -0.04392038 21.47723007 -0.04339027 C22.96437055 -0.04456609 24.45151226 -0.04896539 25.93863297 -0.05672264 C27.99990549 -0.06650632 30.06079175 -0.06365584 32.12207031 -0.05761719 C33.29037384 -0.05904221 34.45867737 -0.06046722 35.66238403 -0.06193542 C38.55409185 0.1771393 40.21158911 0.67497644 42.65283203 2.18530273 C40.76467847 4.0734563 37.4801825 3.31312574 34.97192383 3.31469727 C34.27238586 3.31644958 33.5728479 3.3182019 32.85211182 3.32000732 C30.51873345 3.32443695 28.18543005 3.32147803 25.85205078 3.31811523 C24.21987392 3.31878939 22.58769715 3.31976035 20.95552063 3.3210144 C17.51452693 3.32249401 14.07355906 3.32033369 10.63256836 3.31567383 C6.28107524 3.31006081 1.92964441 3.31328527 -2.42184639 3.31912613 C-36.85152739 3.35812421 -36.85152739 3.35812421 -53.34716797 2.18530273 C-53.34716797 1.85530273 -53.34716797 1.52530273 -53.34716797 1.18530273 C-35.56493222 0.12032941 -17.80713807 -0.00250892 0 0 Z " fill="#292E2F" transform="translate(828.34716796875,325.814697265625)"/>
<path d="M0 0 C0 0.66 0 1.32 0 2 C-2.64 2.66 -5.28 3.32 -8 4 C-7.67 4.66 -7.34 5.32 -7 6 C-16.73640958 7.74540388 -25.46849315 5.97781561 -35 4 C-35 3.67 -35 3.34 -35 3 C-30.47983634 2.49382065 -25.95877401 1.99615563 -21.4375 1.5 C-20.16068359 1.35691406 -18.88386719 1.21382812 -17.56835938 1.06640625 C-16.32763672 0.93105469 -15.08691406 0.79570313 -13.80859375 0.65625 C-12.67220459 0.53056641 -11.53581543 0.40488281 -10.36499023 0.27539062 C-6.8946773 -0.0086196 -3.48030728 -0.04642989 0 0 Z " fill="#191E1F" transform="translate(140,629)"/>
<path d="M0 0 C-0.33 0.99 -0.66 1.98 -1 3 C0.98 3.66 2.96 4.32 5 5 C5 5.33 5 5.66 5 6 C-4.5176733 8.21157554 -13.17747938 9.44723112 -23 9 C-20.93171476 6.93171476 -19.65232267 6.31932087 -16.97265625 5.2734375 C-15.78446289 4.809375 -15.78446289 4.809375 -14.57226562 4.3359375 C-13.74404297 4.01882813 -12.91582031 3.70171875 -12.0625 3.375 C-11.23814453 3.05015625 -10.41378906 2.7253125 -9.56445312 2.390625 C-3.38197545 0 -3.38197545 0 0 0 Z " fill="#182123" transform="translate(164,500)"/>
<path d="M0 0 C7.06608191 -0.13794954 13.97360585 0.25194283 21 1 C21 1.33 21 1.66 21 2 C10.75176087 2.99292724 0.60599372 3.1320787 -9.67578125 3.09765625 C-11.33871925 3.09578624 -13.00165781 3.0943651 -14.66459656 3.09336853 C-18.99634377 3.08958923 -23.32805632 3.07979934 -27.65979004 3.06866455 C-32.09805838 3.0583506 -36.53633245 3.05384973 -40.97460938 3.04882812 C-49.64975532 3.03817194 -58.32487332 3.02115218 -67 3 C-67 2.67 -67 2.34 -67 2 C-44.89 1.67 -22.78 1.34 0 1 C0 0.67 0 0.34 0 0 Z " fill="#4A4B4C" transform="translate(297,640)"/>
<path d="M0 0 C-5 5 -5 5 -7.1015625 5.046875 C-12.55022967 4.40585533 -17.71178781 3.46894783 -23 2 C-23 1.34 -23 0.68 -23 0 C-15.19636521 -1.14500285 -7.83007996 -0.79773542 0 0 Z " fill="#1E2728" transform="translate(282,685)"/>
<path d="M0 0 C0.83821289 -0.00451172 1.67642578 -0.00902344 2.54003906 -0.01367188 C8.07869236 -0.00066525 13.4425049 0.42774987 18.9375 1.125 C18.9375 1.455 18.9375 1.785 18.9375 2.125 C13.19071251 3.35645446 7.53325872 3.2725705 1.6875 3.25 C0.70136719 3.25386719 -0.28476562 3.25773437 -1.30078125 3.26171875 C-7.61345095 3.25340166 -13.79550331 2.88207527 -20.0625 2.125 C-20.0625 1.795 -20.0625 1.465 -20.0625 1.125 C-13.3600405 0.23133873 -6.75195379 0.01495449 0 0 Z " fill="#353839" transform="translate(562.0625,336.875)"/>
<path d="M0 0 C0 0.33 0 0.66 0 1 C3.63 1.33 7.26 1.66 11 2 C11 2.99 11 3.98 11 5 C3.05042008 5.22428282 -4.27111181 4.95403042 -12 3 C-11 1 -11 1 -8.25 -0.1875 C-4.95578208 -1.01105448 -3.20978295 -0.94405381 0 0 Z " fill="#242B2C" transform="translate(90,568)"/>
<path d="M0 0 C0.99 0.66 1.98 1.32 3 2 C2.67 2.66 2.34 3.32 2 4 C3.98 3.67 5.96 3.34 8 3 C8.33 3.66 8.66 4.32 9 5 C6.37646482 6.00399524 3.75132205 7.00334445 1.125 8 C0.37863281 8.28617187 -0.36773437 8.57234375 -1.13671875 8.8671875 C-6.7734375 11 -6.7734375 11 -9 11 C-7.59928507 5.70841026 -4.14512755 3.22521956 0 0 Z " fill="#1A2325" transform="translate(241,415)"/>
<path d="M0 0 C1.37712662 0.00212242 1.37712662 0.00212242 2.78207397 0.00428772 C5.67506358 0.00982405 8.56797183 0.02236406 11.4609375 0.03515625 C13.43880095 0.0401795 15.41666564 0.04474095 17.39453125 0.04882812 C22.20836403 0.05977252 27.02213704 0.07699207 31.8359375 0.09765625 C31.8359375 0.42765625 31.8359375 0.75765625 31.8359375 1.09765625 C20.14662562 2.00055482 8.55618254 2.21231082 -3.1640625 2.09765625 C-3.1640625 2.42765625 -3.1640625 2.75765625 -3.1640625 3.09765625 C-8.7740625 2.76765625 -14.3840625 2.43765625 -20.1640625 2.09765625 C-20.1640625 1.76765625 -20.1640625 1.43765625 -20.1640625 1.09765625 C-13.41653361 0.30381939 -6.79125668 -0.04042462 0 0 Z " fill="#3C3E3F" transform="translate(712.1640625,448.90234375)"/>
<path d="M0 0 C1 3 1 3 -0.21484375 5.69921875 C-0.78332031 6.68535156 -1.35179687 7.67148437 -1.9375 8.6875 C-2.78634766 10.17830078 -2.78634766 10.17830078 -3.65234375 11.69921875 C-4.09707031 12.45847656 -4.54179688 13.21773437 -5 14 C-5.33 13.01 -5.66 12.02 -6 11 C-7.65 11.66 -9.3 12.32 -11 13 C-11.66 12.34 -12.32 11.68 -13 11 C-12.22914063 10.37351562 -11.45828125 9.74703125 -10.6640625 9.1015625 C-9.15972656 7.87566406 -9.15972656 7.87566406 -7.625 6.625 C-6.62726562 5.81289063 -5.62953125 5.00078125 -4.6015625 4.1640625 C-2.03639494 2.09734084 -2.03639494 2.09734084 0 0 Z " fill="#252C2D" transform="translate(820,568)"/>
<path d="M0 0 C0 0.66 0 1.32 0 2 C2.97 2.495 2.97 2.495 6 3 C6 3.33 6 3.66 6 4 C-0.38226945 4.82351864 -6.56744599 5.12086218 -13 5 C-13 4.34 -13 3.68 -13 3 C-11.21189234 2.30329584 -9.41937948 1.61788811 -7.625 0.9375 C-6.62726563 0.55464844 -5.62953125 0.17179688 -4.6015625 -0.22265625 C-2 -1 -2 -1 0 0 Z " fill="#47494A" transform="translate(222,582)"/>
<path d="M0 0 C1.57104492 0.00676758 1.57104492 0.00676758 3.17382812 0.01367188 C5.72011536 0.02529876 8.2662746 0.04163719 10.8125 0.0625 C10.8125 0.3925 10.8125 0.7225 10.8125 1.0625 C9.66910156 1.12308594 8.52570312 1.18367187 7.34765625 1.24609375 C5.85675695 1.33048428 4.36587225 1.41513302 2.875 1.5 C1.74288086 1.55897461 1.74288086 1.55897461 0.58789062 1.61914062 C-3.10694187 1.50288024 -3.10694187 1.50288024 -6.1875 3.0625 C-9.05438248 2.97153444 -11.89050515 2.82482012 -14.75 2.625 C-15.55630859 2.57279297 -16.36261719 2.52058594 -17.19335938 2.46679688 C-19.19171738 2.33672624 -21.18965386 2.20020944 -23.1875 2.0625 C-23.1875 1.7325 -23.1875 1.4025 -23.1875 1.0625 C-15.43325135 0.21346673 -7.79703932 -0.06501701 0 0 Z " fill="#6B6C6C" transform="translate(707.1875,516.9375)"/>
<path d="M0 0 C0.66 0.99 1.32 1.98 2 3 C-4.21324498 3.73030908 -9.84098757 4.23180249 -16 3 C-16 2.67 -16 2.34 -16 2 C-13.71022755 1.47090114 -11.41810812 0.95194981 -9.125 0.4375 C-7.84882812 0.14746094 -6.57265625 -0.14257812 -5.2578125 -0.44140625 C-2 -1 -2 -1 0 0 Z " fill="#263031" transform="translate(131,632)"/>
<path d="M0 0 C-0.33 0.99 -0.66 1.98 -1 3 C-5.36228979 5.028972 -8.35656242 5.10558038 -13 4 C-13 3.67 -13 3.34 -13 3 C-11.39743892 2.49487756 -9.79288208 1.99608373 -8.1875 1.5 C-7.29417969 1.2215625 -6.40085937 0.943125 -5.48046875 0.65625 C-3 0 -3 0 0 0 Z " fill="#23282A" transform="translate(288,560)"/>
<path d="M0 0 C-2 3 -2 3 -4.1640625 3.51171875 C-5.38222656 3.59873047 -5.38222656 3.59873047 -6.625 3.6875 C-7.44226563 3.75324219 -8.25953125 3.81898438 -9.1015625 3.88671875 C-9.72804688 3.92410156 -10.35453125 3.96148437 -11 4 C-11 3.01 -11 2.02 -11 1 C-7.26562152 0.12132271 -3.83225427 -0.08912219 0 0 Z " fill="#252A2B" transform="translate(635,346)"/>
<path d="M0 0 C1.32 0.99 2.64 1.98 4 3 C-0.29 3 -4.58 3 -9 3 C-6.40821726 0.40821726 -3.54324677 -1.77162338 0 0 Z " fill="#343636" transform="translate(150,506)"/>
<path d="M0 0 C-0.33 0.99 -0.66 1.98 -1 3 C-3.64 2.67 -6.28 2.34 -9 2 C-9 1.34 -9 0.68 -9 0 C-5.52176885 -1.15941038 -3.54104422 -0.70820884 0 0 Z " fill="#2D2F30" transform="translate(553,686)"/>
<path d="M0 0 C-0.33 0.99 -0.66 1.98 -1 3 C-1.93972656 3.09087891 -1.93972656 3.09087891 -2.8984375 3.18359375 C-3.71570313 3.26738281 -4.53296875 3.35117187 -5.375 3.4375 C-6.18710937 3.51871094 -6.99921875 3.59992187 -7.8359375 3.68359375 C-10.04272805 3.89090114 -10.04272805 3.89090114 -12 5 C-12.66 4.34 -13.32 3.68 -14 3 C-12.23050388 2.49528803 -10.45934777 1.99639315 -8.6875 1.5 C-7.70136719 1.2215625 -6.71523438 0.943125 -5.69921875 0.65625 C-3 0 -3 0 0 0 Z " fill="#303333" transform="translate(444,657)"/>
<path d="M0 0 C6.93 0.495 6.93 0.495 14 1 C14 1.33 14 1.66 14 2 C6.08 2.495 6.08 2.495 -2 3 C-1.34 2.01 -0.68 1.02 0 0 Z " fill="#535656" transform="translate(639,436)"/>
<path d="M0 0 C0.66 0.33 1.32 0.66 2 1 C-0.6234008 3.91488977 -3.71816394 5.88503898 -7 8 C-7 6.68 -7 5.36 -7 4 C-1.7265625 0.77734375 -1.7265625 0.77734375 0 0 Z " fill="#282B2D" transform="translate(769,605)"/>
<path d="M0 0 C0.66 0.33 1.32 0.66 2 1 C2 1.66 2 2.32 2 3 C-3.75 6 -3.75 6 -6 6 C-6 5.01 -6 4.02 -6 3 C-4.03533587 1.93224776 -2.03144641 0.93446535 0 0 Z " fill="#272D2F" transform="translate(377,349)"/>
<path d="M0 0 C-0.33 0.99 -0.66 1.98 -1 3 C-4.63 2.67 -8.26 2.34 -12 2 C-12 1.67 -12 1.34 -12 1 C-7.93631321 0.22596442 -4.13574827 -0.0984702 0 0 Z " fill="#262B2C" transform="translate(670,340)"/>
<path d="M0 0 C-0.99 0 -1.98 0 -3 0 C-3.33 0.99 -3.66 1.98 -4 3 C-6.875 3.625 -6.875 3.625 -10 4 C-10.66 3.34 -11.32 2.68 -12 2 C-10.75579353 1.4654744 -9.50429064 0.94791389 -8.25 0.4375 C-7.55390625 0.14746094 -6.8578125 -0.14257812 -6.140625 -0.44140625 C-3.69987216 -1.07831803 -2.3596345 -0.80248831 0 0 Z " fill="#2E3133" transform="translate(445,324)"/>
<path d="M0 0 C1 3 1 3 0.375 5.125 C-1 7 -1 7 -3.625 7.75 C-4.800625 7.87375 -4.800625 7.87375 -6 8 C-4.26440562 4.942048 -2.61527381 2.36620011 0 0 Z " fill="#2F3131" transform="translate(820,568)"/>
<path d="M0 0 C0.33 1.32 0.66 2.64 1 4 C-1.875 4.125 -1.875 4.125 -5 4 C-5.66 3.34 -6.32 2.68 -7 2 C-4.35261084 0.5393715 -3.10551666 0 0 0 Z " fill="#282B2C" transform="translate(85,568)"/>
<path d="M0 0 C-3.1749094 1.9078584 -5.10585211 2.1609041 -8.75 1.625 C-9.54921875 1.51414062 -10.3484375 1.40328125 -11.171875 1.2890625 C-11.77515625 1.19367187 -12.3784375 1.09828125 -13 1 C-13 0.67 -13 0.34 -13 0 C-8.37078475 -1.0161692 -4.65537393 -0.83796731 0 0 Z " fill="#22292B" transform="translate(142,566)"/>
<path d="M0 0 C2.64 0.66 5.28 1.32 8 2 C8 2.33 8 2.66 8 3 C6.37675914 3.22162329 4.751279 3.42689803 3.125 3.625 C1.76761719 3.79902344 1.76761719 3.79902344 0.3828125 3.9765625 C-0.40351562 3.98429687 -1.18984375 3.99203125 -2 4 C-2.66 3.34 -3.32 2.68 -4 2 C-2.68 2 -1.36 2 0 2 C0 1.34 0 0.68 0 0 Z " fill="#232829" transform="translate(609,370)"/>
<path d="M0 0 C0 0.33 0 0.66 0 1 C-2.64 1 -5.28 1 -8 1 C-8 1.66 -8 2.32 -8 3 C-10.64 2.67 -13.28 2.34 -16 2 C-16 1.67 -16 1.34 -16 1 C-10.63904667 -0.12862175 -5.44693314 -0.09688221 0 0 Z " fill="#434343" transform="translate(121,631)"/>
<path d="M0 0 C-0.33 0.99 -0.66 1.98 -1 3 C-4.3 2.67 -7.6 2.34 -11 2 C-11 1.67 -11 1.34 -11 1 C-7.27569643 0.30710631 -3.78916254 -0.11144596 0 0 Z " fill="#242829" transform="translate(352,611)"/>
<path d="M0 0 C-1 3 -1 3 -2.75 4.25 C-5.52724898 5.17574966 -7.21571665 4.77341204 -10 4 C-7.25346796 1.25346796 -3.91404908 0 0 0 Z " fill="#2B3030" transform="translate(184,492)"/>
<path d="M0 0 C-1.0625 1.5 -1.0625 1.5 -3 3 C-6.6875 3.1875 -6.6875 3.1875 -10 3 C-4.375 -1.3125 -4.375 -1.3125 0 0 Z " fill="#323537" transform="translate(401,382)"/>
<path d="M0 0 C2.64 0 5.28 0 8 0 C8 0.99 8 1.98 8 3 C5.36 2.67 2.72 2.34 0 2 C0 1.34 0 0.68 0 0 Z " fill="#3E4040" transform="translate(259,685)"/>
<path d="M0 0 C-0.33 0.66 -0.66 1.32 -1 2 C-4.23097953 2.86159454 -6.22486274 3.30597523 -9.375 2.0625 C-9.91125 1.711875 -10.4475 1.36125 -11 1 C-3.57142857 -1.42857143 -3.57142857 -1.42857143 0 0 Z " fill="#3B3F40" transform="translate(242,609)"/>
<path d="M0 0 C0 0.99 0 1.98 0 3 C-2.8125 3.625 -2.8125 3.625 -6 4 C-6.99 3.34 -7.98 2.68 -9 2 C-3.375 0 -3.375 0 0 0 Z " fill="#292E2F" transform="translate(187,535)"/>
<path d="M0 0 C-2.91708924 1.98362069 -4.12380904 1.9876191 -7.75 1.625 C-8.8225 1.41875 -9.895 1.2125 -11 1 C-6.8204355 -1.78637633 -4.85331323 -0.79562512 0 0 Z " fill="#232829" transform="translate(605,468)"/>
<path d="M0 0 C-0.33 0.99 -0.66 1.98 -1 3 C-4.5625 4.1875 -4.5625 4.1875 -8 5 C-8.66 4.34 -9.32 3.68 -10 3 C-3.375 0 -3.375 0 0 0 Z " fill="#313436" transform="translate(413,335)"/>
<path d="M0 0 C0.66 0.33 1.32 0.66 2 1 C2 1.66 2 2.32 2 3 C0.68 2.67 -0.64 2.34 -2 2 C-2.33 2.99 -2.66 3.98 -3 5 C-4.65 4.67 -6.3 4.34 -8 4 C-5.31143836 2.20762558 -3.0466145 1.01553817 0 0 Z " fill="#363A3B" transform="translate(491,640)"/>
<path d="M0 0 C-1 2 -1 2 -2.84765625 2.6328125 C-3.57855469 2.79523437 -4.30945313 2.95765625 -5.0625 3.125 C-5.79597656 3.29257812 -6.52945312 3.46015625 -7.28515625 3.6328125 C-7.85105469 3.75398437 -8.41695313 3.87515625 -9 4 C-8 1 -8 1 -5.625 -0.25 C-3 -1 -3 -1 0 0 Z " fill="#181E21" transform="translate(360,590)"/>
<path d="M0 0 C0.33 0.66 0.66 1.32 1 2 C1.99 2.33 2.98 2.66 4 3 C1.38058783 4.74627478 -0.03824877 5.38722388 -3 6 C-1.125 1.125 -1.125 1.125 0 0 Z " fill="#313435" transform="translate(235,420)"/>
<path d="M0 0 C0.66 0.33 1.32 0.66 2 1 C-0.1875 3.0625 -0.1875 3.0625 -3 5 C-5.8125 4.75 -5.8125 4.75 -8 4 C-5.31143836 2.20762558 -3.0466145 1.01553817 0 0 Z " fill="#404343" transform="translate(310,584)"/>
<path d="M0 0 C0.66 0.33 1.32 0.66 2 1 C-0.1875 3.0625 -0.1875 3.0625 -3 5 C-5.8125 4.75 -5.8125 4.75 -8 4 C-5.31143836 2.20762558 -3.0466145 1.01553817 0 0 Z " fill="#363A3B" transform="translate(166,541)"/>
<path d="M0 0 C0.66 0.33 1.32 0.66 2 1 C1.360625 1.103125 0.72125 1.20625 0.0625 1.3125 C-0.9584375 1.6528125 -0.9584375 1.6528125 -2 2 C-2.33 2.99 -2.66 3.98 -3 5 C-4.65 4.67 -6.3 4.34 -8 4 C-5.31143836 2.20762558 -3.0466145 1.01553817 0 0 Z " fill="#454748" transform="translate(549,617)"/>
<path d="M0 0 C-0.33 0.99 -0.66 1.98 -1 3 C-3.875 3.625 -3.875 3.625 -7 4 C-7.66 3.34 -8.32 2.68 -9 2 C-3.375 0 -3.375 0 0 0 Z " fill="#272A2B" transform="translate(326,488)"/>
<path d="M0 0 C-0.33 0.66 -0.66 1.32 -1 2 C-3.9375 2.75 -3.9375 2.75 -7 3 C-7.66 2.34 -8.32 1.68 -9 1 C-5.57367167 -0.61798838 -3.61944899 -1.34053666 0 0 Z " fill="#323536" transform="translate(369,475)"/>
<path d="M0 0 C0 0.66 0 1.32 0 2 C-1.98 2.99 -3.96 3.98 -6 5 C-6 4.34 -6 3.68 -6 3 C-6.66 2.67 -7.32 2.34 -8 2 C-5.09399739 0.74335022 -3.20395416 0 0 0 Z " fill="#323738" transform="translate(244,469)"/>
<path d="M0 0 C1.32 0.66 2.64 1.32 4 2 C0.7 2.66 -2.6 3.32 -6 4 C-6.33 3.34 -6.66 2.68 -7 2 C-2.25 0.875 -2.25 0.875 0 2 C0 1.34 0 0.68 0 0 Z " fill="#34393A" transform="translate(462,408)"/>
<path d="M0 0 C2.97 0.99 5.94 1.98 9 3 C7.02 3.99 7.02 3.99 5 5 C2.25 3.75 2.25 3.75 0 2 C0 1.34 0 0.68 0 0 Z " fill="#202728" transform="translate(611,322)"/>
<path d="M0 0 C0.33 1.32 0.66 2.64 1 4 C-0.98 4.99 -0.98 4.99 -3 6 C-3.66 5.34 -4.32 4.68 -5 4 C-3.35 2.68 -1.7 1.36 0 0 Z " fill="#282E2F" transform="translate(806,580)"/>
<path d="M0 0 C0 0.99 0 1.98 0 3 C-3.3 3 -6.6 3 -10 3 C-6.41600853 0.61067235 -4.26804999 0 0 0 Z " fill="#323637" transform="translate(98,564)"/>
<path d="M0 0 C0 0.33 0 0.66 0 1 C-6.0546875 1.9765625 -6.0546875 1.9765625 -8 2 C-8.66 1.34 -9.32 0.68 -10 0 C-6.30581799 -1.231394 -3.7943739 -0.64432764 0 0 Z " fill="#293032" transform="translate(169,505)"/>
<path d="M0 0 C-0.33 0.99 -0.66 1.98 -1 3 C-3.375 3.625 -3.375 3.625 -6 4 C-6.66 3.34 -7.32 2.68 -8 2 C-5.09399739 0.74335022 -3.20395416 0 0 0 Z " fill="#323637" transform="translate(164,500)"/>
<path d="M0 0 C0 0.99 0 1.98 0 3 C-2.375 3.625 -2.375 3.625 -5 4 C-5.66 3.34 -6.32 2.68 -7 2 C-2.25 0 -2.25 0 0 0 Z " fill="#2C3132" transform="translate(215,480)"/>
</svg>
